<?xml version="1.0" standalone="no"?>
<!DOCTYPE svg PUBLIC "-//W3C//DTD SVG 20010904//EN"
 "http://www.w3.org/TR/2001/REC-SVG-20010904/DTD/svg10.dtd">
<svg version="1.0" xmlns="http://www.w3.org/2000/svg"
 width="1024.000000pt" height="1024.000000pt" viewBox="0 0 1024.000000 1024.000000"
 preserveAspectRatio="xMidYMid meet">

<g transform="translate(0.000000,1024.000000) scale(0.100000,-0.100000)"
fill="#000000" stroke="none">
<path d="M4039 6018 c-1 -40 -2 -98 -3 -128 l-1 -55 -70 -5 -70 -5 -2 -173
c-1 -143 2 -186 17 -245 11 -40 20 -78 20 -84 0 -10 -36 -13 -145 -13 l-145 0
0 -144 c0 -86 -4 -147 -10 -151 -6 -4 -10 28 -10 88 0 85 -4 107 -41 213 -53
154 -53 154 -94 154 -32 0 -35 3 -35 29 0 28 -4 31 -92 60 -87 28 -104 30
-253 32 -147 1 -166 -1 -237 -24 -42 -14 -91 -28 -108 -32 -25 -5 -30 -11 -30
-36 0 -28 -2 -29 -44 -29 l-45 0 -3 -52 -3 -53 -33 58 -34 57 -198 0 -198 0
-6 -162 c-3 -90 -5 -194 -3 -233 l2 -70 -258 -3 -257 -2 0 123 0 123 -87 112
-88 112 -202 0 -203 0 0 -310 0 -310 35 -22 c23 -15 35 -31 35 -45 0 -31 91
-120 226 -220 l111 -83 82 0 81 0 0 -93 0 -93 48 -35 c26 -20 73 -55 104 -77
l57 -42 161 0 160 0 0 169 0 170 154 3 c128 2 157 6 173 20 20 19 58 15 81 -9
10 -10 58 -13 198 -13 173 0 190 2 294 30 l110 30 102 -30 c98 -29 107 -30
309 -30 155 0 211 3 221 13 7 7 30 18 52 24 35 11 42 10 71 -13 29 -22 41 -24
139 -24 105 0 143 9 159 36 12 21 52 17 93 -11 34 -23 46 -25 146 -25 103 0
112 2 140 25 16 14 40 25 53 25 13 0 29 -10 39 -25 l16 -25 194 0 c186 0 195
1 239 25 26 13 62 28 79 33 27 7 34 14 36 39 3 28 7 32 35 35 l32 3 12 100 c9
73 12 272 10 730 l-2 630 -205 0 -205 0 -2 -300 c-1 -165 -2 -406 -2 -536 l-1
-236 -48 -1 -49 -2 -6 143 c-4 78 -4 159 -1 179 4 20 3 62 0 92 l-7 56 -123 0
-123 0 -14 173 -14 172 -52 3 c-29 2 -53 6 -53 10 -1 4 -9 61 -18 127 l-18
120 -187 3 -187 2 -1 -72z m291 -113 l0 -95 -100 0 -100 0 0 95 0 95 100 0
100 0 0 -95z m940 -490 l0 -585 -45 0 c-44 0 -45 0 -45 -33 0 -31 -4 -35 -39
-45 -55 -17 -397 -16 -408 1 -4 6 -12 26 -18 42 -9 28 -13 30 -65 30 -52 0
-55 -1 -58 -26 -6 -52 -29 -61 -149 -57 -96 3 -111 5 -131 26 -12 12 -22 31
-22 42 0 18 -7 20 -55 20 l-55 0 0 -35 c0 -46 -15 -52 -132 -54 -111 -2 -150
12 -167 62 -10 26 -14 28 -53 25 -41 -3 -43 -5 -46 -36 -3 -25 -10 -35 -29
-43 -31 -11 -417 -6 -509 8 -43 6 -71 17 -100 39 -38 31 -70 36 -84 14 -4 -6
-14 -8 -24 -4 -13 5 -17 2 -14 -12 5 -31 -91 -47 -315 -51 l-199 -4 -23 25
c-13 14 -26 35 -30 46 -5 16 -15 20 -56 20 l-49 0 0 -45 0 -45 -520 0 -520 0
0 45 0 45 -40 0 -40 0 0 45 c0 45 0 45 -35 45 l-35 0 0 235 0 235 115 0 115 0
0 -201 0 -201 32 -31 31 -32 378 -3 377 -3 26 34 26 34 0 201 0 202 110 0 110
0 0 -199 c0 -201 7 -251 35 -251 8 0 15 -5 15 -12 0 -8 48 -9 187 -5 102 4
188 9 191 12 12 11 -32 96 -57 111 -20 12 -28 24 -28 45 0 39 -20 59 -59 59
l-34 0 0 115 0 115 44 0 45 0 3 41 3 42 70 19 c99 28 317 30 395 4 68 -23 74
-28 74 -68 1 -31 4 -33 41 -38 l40 -5 3 -113 3 -112 -31 -7 c-35 -7 -50 -28
-50 -72 0 -17 -4 -31 -10 -31 -5 0 -25 -15 -45 -32 -24 -23 -35 -42 -35 -60
l0 -28 198 0 c108 0 202 4 208 8 36 25 44 57 44 174 l0 118 110 0 110 0 0
-131 c0 -72 5 -139 10 -150 8 -15 21 -19 58 -19 52 0 61 4 85 40 14 20 17 51
17 188 l0 163 113 -3 112 -3 5 -165 c6 -198 14 -220 85 -220 71 0 75 13 75
260 l0 210 115 0 115 0 0 -210 0 -211 26 -24 c25 -23 34 -25 137 -25 93 0 112
3 123 18 11 14 13 121 14 540 l0 522 115 0 115 0 0 -585z m-1080 225 l0 -90
-99 0 -100 0 -3 90 -3 90 103 0 102 0 0 -90z m280 0 l0 -90 -100 0 -100 0 0
90 0 90 100 0 100 0 0 -90z m-2530 -1160 l0 -90 -105 0 -105 0 0 90 0 90 105
0 105 0 0 -90z"/>
<path d="M3005 5316 l-60 -11 -3 -52 c-3 -52 -3 -52 45 -87 27 -19 59 -53 71
-75 13 -23 31 -41 40 -41 9 0 47 29 85 65 65 61 67 65 67 112 0 60 -13 78 -65
92 -49 13 -101 12 -180 -3z"/>
<path d="M5396 5968 c-3 -68 -8 -428 -11 -800 l-5 -678 197 0 198 0 18 88 c15
79 17 163 17 800 l0 712 -204 0 -204 0 -6 -122z m324 -598 l0 -630 -115 0
-115 0 0 630 0 630 115 0 115 0 0 -630z"/>
<path d="M6839 6063 c-6 -16 -26 -71 -45 -123 l-34 -95 0 -592 0 -593 -69 0
c-84 0 -101 6 -101 34 0 16 -9 24 -32 31 -30 9 -33 14 -36 51 -2 31 7 60 33
115 34 71 35 78 35 186 l0 112 -37 6 c-30 6 -231 57 -314 81 -13 4 -22 -10
-38 -58 -12 -34 -21 -70 -21 -80 0 -10 -5 -18 -11 -18 -20 0 -79 -147 -91
-227 -16 -108 -16 -388 0 -435 8 -21 27 -48 43 -62 19 -16 29 -34 29 -53 0
-23 8 -32 40 -47 28 -13 39 -24 35 -34 -6 -17 22 -41 48 -42 10 0 49 -16 87
-35 l70 -35 209 0 210 0 33 30 c18 17 44 34 58 37 25 7 150 124 150 142 0 6 9
15 20 21 19 10 20 8 20 -110 l0 -120 290 0 290 0 95 75 95 76 0 94 0 95 58 0
c53 0 61 3 92 35 19 19 42 35 52 35 10 0 36 16 58 36 l40 36 0 -71 0 -71 326
0 326 0 118 83 c84 57 119 88 120 102 0 27 9 38 48 60 l32 19 0 293 0 293 -35
0 -34 0 -3 57 -3 58 -39 6 c-39 6 -56 21 -56 52 0 9 -7 17 -16 17 -9 0 -40 14
-69 30 l-53 30 -206 1 -206 0 -25 -28 c-14 -15 -33 -40 -42 -55 -10 -16 -20
-28 -23 -28 -3 0 -5 136 -5 303 l0 302 -202 3 -202 2 -71 -119 -70 -119 0
-186 0 -186 -194 0 -195 0 -53 -92 -53 -93 -5 -140 -5 -140 -25 0 -25 0 -1
460 c0 253 -1 495 -2 538 l-2 77 -200 0 -200 0 -11 -27z m321 -566 c0 -378 3
-510 12 -529 17 -36 65 -48 190 -48 104 0 104 0 126 30 21 28 22 39 22 235 l0
205 110 0 110 0 2 -137 c2 -76 3 -168 3 -205 0 -60 3 -70 29 -97 30 -31 30
-31 138 -31 96 0 108 2 118 19 6 13 10 201 10 541 l0 521 118 -3 117 -3 0
-580 0 -580 -42 -3 c-40 -3 -42 -5 -45 -39 -2 -26 -8 -38 -23 -41 -40 -10
-395 -13 -412 -4 -9 6 -22 25 -28 44 -11 32 -13 33 -73 36 l-62 3 0 -39 c0
-33 -4 -41 -22 -46 -13 -3 -110 -6 -215 -6 l-193 0 0 -47 c0 -74 -18 -112 -57
-119 -31 -6 -33 -8 -33 -50 l0 -43 -47 -3 -48 -3 -3 -42 -3 -43 -227 0 c-203
0 -232 3 -269 20 -30 13 -43 25 -43 40 0 16 -6 20 -37 20 -49 0 -59 8 -68 48
-4 20 -20 42 -40 58 -19 14 -37 36 -41 47 -4 12 -12 25 -18 29 -14 9 -21 295
-9 353 8 34 13 41 38 45 28 5 31 9 39 62 10 66 -3 63 136 24 l75 -22 3 -47 c3
-45 1 -48 -26 -58 -35 -12 -42 -40 -41 -174 0 -106 14 -155 49 -172 14 -7 31
-27 38 -46 15 -41 38 -47 182 -46 114 1 142 8 155 37 5 12 14 22 18 22 5 0 20
10 33 23 l24 22 0 663 0 662 115 0 115 0 0 -503z m1635 3 c22 -5 57 -15 78
-22 35 -12 37 -15 37 -55 l0 -43 45 0 44 0 3 -62 3 -63 38 -3 37 -3 0 -210 0
-209 -35 0 c-35 0 -35 0 -35 -45 l0 -45 -280 0 -280 0 0 90 0 90 198 2 197 3
3 108 c2 85 -1 115 -15 145 -9 20 -21 40 -26 43 -5 4 -12 22 -16 40 -10 48
-38 59 -153 59 l-98 0 0 95 0 95 108 0 c59 -1 125 -5 147 -10z m-247 -456 c6
-2 12 -10 12 -18 0 -12 -20 -15 -100 -18 -88 -3 -101 -1 -106 14 -3 10 -3 22
1 27 5 9 161 5 193 -5z m-1018 -564 l0 -90 -100 0 -100 0 0 90 0 90 100 0 100
0 0 -90z m280 0 l0 -90 -100 0 -100 0 0 90 0 90 100 0 100 0 0 -90z"/>
</g>
</svg>
